<svg width="17" height="20" viewBox="0 0 17 20" fill="none" xmlns="http://www.w3.org/2000/svg">
<path d="M16.2063 4.6875H13.8256C13.5152 2.05164 11.2679 0 8.55005 0C5.8322 0 3.58485 2.05164 3.2745 4.6875H0.893799C0.462314 4.6875 0.112549 5.03727 0.112549 5.46875V19.2188C0.112549 19.6502 0.462314 20 0.893799 20H16.2063C16.6378 20 16.9875 19.6502 16.9875 19.2188V5.46875C16.9875 5.03727 16.6378 4.6875 16.2063 4.6875ZM8.55005 1.5625C10.4049 1.5625 11.9492 2.91621 12.2477 4.6875H4.85243C5.15087 2.91621 6.69521 1.5625 8.55005 1.5625ZM15.425 18.4375H1.67505V6.25H3.23755V8.59375C3.23755 9.02523 3.58731 9.375 4.0188 9.375C4.45028 9.375 4.80005 9.02523 4.80005 8.59375V6.25H12.3V8.59375C12.3 9.02523 12.6498 9.375 13.0813 9.375C13.5128 9.375 13.8625 9.02523 13.8625 8.59375V6.25H15.425V18.4375Z" fill="#222222"/>
</svg>
