<svg width="21" height="18" viewBox="0 0 21 18" fill="none" xmlns="http://www.w3.org/2000/svg">
<path d="M18.9432 2.30806C16.7681 0.133484 13.2295 0.133484 11.055 2.30806L10.5499 2.81285L10.0451 2.30806C7.87051 0.13319 4.33168 0.13319 2.15711 2.30806C0.0266882 4.43848 0.0128542 7.81542 2.12503 10.1634C4.05147 12.3041 9.73309 16.929 9.97415 17.1248C10.1378 17.2578 10.3347 17.3226 10.5304 17.3226C10.5369 17.3226 10.5434 17.3226 10.5496 17.3223C10.7521 17.3317 10.9561 17.2622 11.125 17.1248C11.3661 16.929 17.0483 12.3041 18.9753 10.1631C21.0872 7.81542 21.0734 4.43848 18.9432 2.30806ZM17.6626 8.98188C16.1606 10.6505 12.0319 14.0919 10.5496 15.3131C9.06729 14.0922 4.93949 10.6511 3.43778 8.98218C1.96432 7.34448 1.95048 5.01214 3.40569 3.55693C4.1489 2.81402 5.12492 2.44227 6.10095 2.44227C7.07698 2.44227 8.053 2.81373 8.79621 3.55693L9.90645 4.66718C10.0386 4.79934 10.2052 4.87822 10.38 4.90589C10.6638 4.96682 10.9717 4.88764 11.1924 4.66747L12.3033 3.55693C13.79 2.07082 16.2082 2.07111 17.6941 3.55693C19.1493 5.01214 19.1354 7.34448 17.6626 8.98188Z" fill="#222222"/>
</svg>
